<svg width="1280" height="644" viewBox="0 0 1280 644" fill="none" xmlns="http://www.w3.org/2000/svg">
<rect width="1280" height="644" fill="#E5E5E5"/>
<g clip-path="url(#clip0_502_9)">
<rect width="1280" height="644" fill="white"/>
<rect width="1280" height="644" fill="url(#paint0_linear_502_9)"/>
<path d="M365.08 211H401.48V407H365.08V211ZM263.72 407H227.32V211H263.72V407ZM367.88 323H260.64V291.92H367.88V323ZM520.92 408.96C504.306 408.96 489.746 405.693 477.24 399.16C464.92 392.44 455.306 383.293 448.4 371.72C441.68 360.147 438.32 346.987 438.32 332.24C438.32 317.307 441.586 304.147 448.12 292.76C454.84 281.187 463.986 272.133 475.56 265.6C487.32 259.067 500.666 255.8 515.6 255.8C530.16 255.8 543.133 258.973 554.52 265.32C565.906 271.667 574.866 280.627 581.4 292.2C587.933 303.773 591.2 317.4 591.2 333.08C591.2 334.573 591.106 336.253 590.92 338.12C590.92 339.987 590.826 341.76 590.64 343.44H466.04V320.2H572.16L558.44 327.48C558.626 318.893 556.853 311.333 553.12 304.8C549.386 298.267 544.253 293.133 537.72 289.4C531.373 285.667 524 283.8 515.6 283.8C507.013 283.8 499.453 285.667 492.92 289.4C486.573 293.133 481.533 298.36 477.8 305.08C474.253 311.613 472.48 319.36 472.48 328.32V333.92C472.48 342.88 474.533 350.813 478.64 357.72C482.746 364.627 488.533 369.947 496 373.68C503.466 377.413 512.053 379.28 521.76 379.28C530.16 379.28 537.72 377.973 544.44 375.36C551.16 372.747 557.133 368.64 562.36 363.04L581.12 384.6C574.4 392.44 565.906 398.507 555.64 402.8C545.56 406.907 533.986 408.96 520.92 408.96ZM634.405 463.28C627.125 463.28 619.845 462.067 612.565 459.64C605.285 457.213 599.218 453.853 594.365 449.56L608.365 423.8C611.912 426.973 615.925 429.493 620.405 431.36C624.885 433.227 629.458 434.16 634.125 434.16C640.472 434.16 645.605 432.573 649.525 429.4C653.445 426.227 657.085 420.907 660.445 413.44L669.125 393.84L671.925 389.64L728.485 257.48H762.085L692.085 419.04C687.418 430.24 682.192 439.107 676.405 445.64C670.805 452.173 664.458 456.747 657.365 459.36C650.458 461.973 642.805 463.28 634.405 463.28ZM665.205 412.32L597.725 257.48H634.125L689.005 386.56L665.205 412.32ZM772.298 343.72V314.6H849.298V343.72H772.298ZM957.527 408.96C942.221 408.96 928.594 405.693 916.647 399.16C904.701 392.44 895.274 383.293 888.367 371.72C881.461 360.147 878.007 346.987 878.007 332.24C878.007 317.307 881.461 304.147 888.367 292.76C895.274 281.187 904.701 272.133 916.647 265.6C928.594 259.067 942.221 255.8 957.527 255.8C973.021 255.8 986.741 259.067 998.687 265.6C1010.82 272.133 1020.25 281.093 1026.97 292.48C1033.87 303.867 1037.33 317.12 1037.33 332.24C1037.33 346.987 1033.87 360.147 1026.97 371.72C1020.25 383.293 1010.82 392.44 998.687 399.16C986.741 405.693 973.021 408.96 957.527 408.96ZM957.527 379C966.114 379 973.767 377.133 980.487 373.4C987.207 369.667 992.434 364.253 996.167 357.16C1000.09 350.067 1002.05 341.76 1002.05 332.24C1002.05 322.533 1000.09 314.227 996.167 307.32C992.434 300.227 987.207 294.813 980.487 291.08C973.767 287.347 966.207 285.48 957.807 285.48C949.221 285.48 941.567 287.347 934.847 291.08C928.314 294.813 923.087 300.227 919.167 307.32C915.247 314.227 913.287 322.533 913.287 332.24C913.287 341.76 915.247 350.067 919.167 357.16C923.087 364.253 928.314 369.667 934.847 373.4C941.567 377.133 949.127 379 957.527 379Z" fill="white"/>
</g>
<defs>
<linearGradient id="paint0_linear_502_9" x1="640" y1="94" x2="640" y2="644" gradientUnits="userSpaceOnUse">
<stop offset="0.138307" stop-color="#669944" stop-opacity="0.97"/>
<stop offset="0.9994" stop-color="#E3392E" stop-opacity="0.12"/>
<stop offset="0.9995" stop-color="#669944" stop-opacity="0"/>
<stop offset="0.9996" stop-color="#B85151" stop-opacity="0.13"/>
<stop offset="0.9997" stop-color="#669944" stop-opacity="0"/>
<stop offset="0.9998" stop-color="#669944" stop-opacity="0"/>
</linearGradient>
<clipPath id="clip0_502_9">
<rect width="1280" height="644" fill="white"/>
</clipPath>
</defs>
</svg>
