<svg width="30" height="30" viewBox="0 0 20 20" fill="none" xmlns="http://www.w3.org/2000/svg">
<g clip-path="url(#clip0_510_65)">
<path d="M9.91577 0.625C1.29968 0.625 0.625 1.29968 0.625 9.91577V10.0842C0.625 18.7003 1.29968 19.375 9.91577 19.375H10.0842C18.7003 19.375 19.375 18.7003 19.375 10.0842V10C19.375 1.30562 18.6944 0.625 10 0.625H9.91577ZM8.125 2.5H11.875C17.0917 2.5 17.5 2.90828 17.5 8.125V11.875C17.5 17.0917 17.0917 17.5 11.875 17.5H8.125C2.90828 17.5 2.5 17.0917 2.5 11.875V8.125C2.5 2.90828 2.90828 2.5 8.125 2.5ZM14.6848 4.375C14.1668 4.37641 13.7486 4.79728 13.75 5.31525C13.7514 5.83322 14.1723 6.25141 14.6902 6.25C15.2082 6.24859 15.6264 5.82772 15.625 5.30975C15.6236 4.79178 15.2027 4.37359 14.6848 4.375ZM9.98901 5.3125C7.40058 5.31859 5.30641 7.42255 5.3125 10.011C5.31859 12.5994 7.42255 14.6936 10.011 14.6875C12.5994 14.6814 14.6936 12.5775 14.6875 9.98901C14.6814 7.40058 12.5775 5.30641 9.98901 5.3125ZM9.99359 7.1875C11.5466 7.18375 12.8088 8.44062 12.8125 9.99359C12.8158 11.5466 11.5594 12.8088 10.0064 12.8125C8.45344 12.8162 7.19125 11.5598 7.1875 10.0064C7.18375 8.45344 8.44062 7.19125 9.99359 7.1875Z" fill="white"/>
</g>
<defs>
<clipPath id="clip0_510_65">
<rect width="20" height="20" fill="white"/>
</clipPath>
</defs>
</svg>
