<svg width="28" height="28" viewBox="0 0 18 18" fill="none" xmlns="http://www.w3.org/2000/svg">
<path d="M2.87997 1.0835C1.63077 1.0835 0.723486 1.8321 0.723486 2.8617C0.723486 3.8949 1.65237 4.67647 2.87997 4.67647C4.12917 4.67647 5.03645 3.91341 5.03645 2.84061C4.97886 1.80741 4.08957 1.0835 2.87997 1.0835ZM1.07997 5.39998C0.881971 5.39998 0.719971 5.56198 0.719971 5.75998V16.2C0.719971 16.398 0.881971 16.56 1.07997 16.56H4.67997C4.87797 16.56 5.03997 16.398 5.03997 16.2V5.75998C5.03997 5.56198 4.87797 5.39998 4.67997 5.39998H1.07997ZM6.47997 5.39998C6.28197 5.39998 6.11997 5.56198 6.11997 5.75998V16.2C6.11997 16.398 6.28197 16.56 6.47997 16.56H9.71997C9.91869 16.56 10.08 16.3987 10.08 16.2V10.8V10.71V10.62C10.08 9.76678 10.7354 9.07181 11.5706 9.00701C11.6138 8.99981 11.6568 8.99998 11.7 8.99998C11.7432 8.99998 11.7861 8.99981 11.8293 9.00701C12.6645 9.07181 13.32 9.76678 13.32 10.62V16.2C13.32 16.3987 13.4812 16.56 13.68 16.56H16.92C17.118 16.56 17.28 16.398 17.28 16.2V10.08C17.28 7.75078 16.0304 5.39998 13.244 5.39998C11.9768 5.39998 11.0196 5.88967 10.44 6.29646V5.75998C10.44 5.56198 10.278 5.39998 10.08 5.39998H6.47997Z" fill="white"/>
</svg>
