{
	"asset":{
		"generator":"Khronos glTF Blender I/O v3.6.28",
		"version":"2.0"
	},
	"scene":0,
	"scenes":[
		{
			"name":"Scene",
			"nodes":[
				0,
				1,
				2,
				3,
				4,
				5,
				6,
				7,
				8,
				9,
				10,
				11
			]
		}
	],
	"nodes":[
		{
			"name":"Empty",
			"rotation":[
				0.6556478142738342,
				0.23845648765563965,
				-0.2893339991569519,
				0.6554008722305298
			],
			"translation":[
				-2.960057497024536,
				2.0062150955200195,
				0.7356336116790771
			]
		},
		{
			"mesh":0,
			"name":"Cube.007",
			"rotation":[
				0.5092664957046509,
				0.4436483383178711,
				-0.2767023742198944,
				0.6835640072822571
			],
			"scale":[
				0.28868117928504944,
				0.2887115180492401,
				0.28849175572395325
			],
			"translation":[
				0.1291506290435791,
				1.201996088027954,
				1.4544830322265625
			]
		},
		{
			"mesh":1,
			"name":"Cube",
			"rotation":[
				0.5231974720954895,
				0.3113684058189392,
				-0.2132004052400589,
				0.7641072869300842
			],
			"scale":[
				0.750028133392334,
				0.42419853806495667,
				0.35608574748039246
			],
			"translation":[
				0.5442365407943726,
				0.29264456033706665,
				0.7888374924659729
			]
		},
		{
			"mesh":2,
			"name":"Cube.001",
			"rotation":[
				0.5205796957015991,
				0.32059046626091003,
				-0.2195148915052414,
				0.7602840065956116
			],
			"scale":[
				0.5867131948471069,
				0.15402212738990784,
				0.13330496847629547
			],
			"translation":[
				1.9156827926635742,
				0.19834351539611816,
				-0.09034663438796997
			]
		},
		{
			"mesh":3,
			"name":"Cube.002",
			"rotation":[
				0.5372315049171448,
				0.2651652693748474,
				-0.17313790321350098,
				0.7817243337631226
			],
			"scale":[
				0.48182615637779236,
				0.11583710461854935,
				0.10525280982255936
			],
			"translation":[
				0.7826696634292603,
				0.6595039367675781,
				1.287771463394165
			]
		},
		{
			"mesh":4,
			"name":"Cube.003",
			"scale":[
				0.053134817630052567,
				0.04709402099251747,
				0.04382038116455078
			],
			"translation":[
				0.2655736804008484,
				1.2183915376663208,
				1.8957847356796265
			]
		},
		{
			"mesh":5,
			"name":"Cube.004",
			"scale":[
				0.053134817630052567,
				0.04709402099251747,
				0.04382038116455078
			],
			"translation":[
				0.5378155708312988,
				1.247044563293457,
				1.6393569707870483
			]
		},
		{
			"mesh":6,
			"name":"Cube.005",
			"rotation":[
				-0.0260323416441679,
				0.4445972442626953,
				0.17906105518341064,
				0.8772643804550171
			],
			"scale":[
				0.010758909396827221,
				0.025174535810947418,
				0.011972934938967228
			],
			"translation":[
				0.3086898922920227,
				1.231042504310608,
				1.9520840644836426
			]
		},
		{
			"mesh":7,
			"name":"Cube.006",
			"rotation":[
				-0.0260323416441679,
				0.4445972442626953,
				0.17906105518341064,
				0.8772643804550171
			],
			"scale":[
				0.010758909396827221,
				0.025174535810947418,
				0.011972934938967228
			],
			"translation":[
				0.6019327640533447,
				1.2642734050750732,
				1.6777335405349731
			]
		},
		{
			"mesh":8,
			"name":"Cube.008",
			"rotation":[
				-0.026032336056232452,
				0.4445972442626953,
				0.17906105518341064,
				0.8772643804550171
			],
			"scale":[
				-0.016710355877876282,
				-0.018536485731601715,
				-0.019934670999646187
			],
			"translation":[
				0.5081068873405457,
				1.1011672019958496,
				1.831773042678833
			]
		},
		{
			"name":"Mesh"
		},
		{
			"name":"Mesh.001"
		}
	],
	"materials":[
		{
			"doubleSided":true,
			"name":"Material.010",
			"pbrMetallicRoughness":{
				"baseColorFactor":[
					0.1259644627571106,
					0.1259644627571106,
					0.1259644627571106,
					1
				],
				"metallicFactor":0,
				"roughnessFactor":0.5
			}
		},
		{
			"doubleSided":true,
			"name":"Material",
			"pbrMetallicRoughness":{
				"metallicFactor":0,
				"roughnessFactor":0.5
			}
		},
		{
			"doubleSided":true,
			"name":"Material.012",
			"pbrMetallicRoughness":{
				"baseColorFactor":[
					0.2774100601673126,
					0.2088129222393036,
					0.21163791418075562,
					1
				],
				"metallicFactor":0,
				"roughnessFactor":0.5
			}
		},
		{
			"doubleSided":true,
			"name":"Material.001",
			"pbrMetallicRoughness":{
				"baseColorFactor":[
					0.1044943556189537,
					0.1044943556189537,
					0.1044943556189537,
					1
				],
				"metallicFactor":0,
				"roughnessFactor":0.5
			}
		},
		{
			"doubleSided":true,
			"name":"Material.003",
			"pbrMetallicRoughness":{
				"baseColorFactor":[
					0.11280222237110138,
					0.11280222237110138,
					0.11280234158039093,
					1
				],
				"metallicFactor":0,
				"roughnessFactor":0.5
			}
		},
		{
			"doubleSided":true,
			"name":"Material.011",
			"pbrMetallicRoughness":{
				"baseColorFactor":[
					0.08897928893566132,
					0.08897928893566132,
					0.08897939324378967,
					1
				],
				"metallicFactor":0,
				"roughnessFactor":0.5
			}
		},
		{
			"doubleSided":true,
			"name":"Material.002",
			"pbrMetallicRoughness":{
				"metallicFactor":0,
				"roughnessFactor":0.5
			}
		},
		{
			"doubleSided":true,
			"name":"Material.005",
			"pbrMetallicRoughness":{
				"baseColorFactor":[
					0.7991028428077698,
					0.37123745679855347,
					0.08650055527687073,
					1
				],
				"metallicFactor":0,
				"roughnessFactor":0.5
			}
		},
		{
			"doubleSided":true,
			"name":"Material.007",
			"pbrMetallicRoughness":{
				"baseColorFactor":[
					0.8000000715255737,
					0.36940866708755493,
					0.08609141409397125,
					1
				],
				"metallicFactor":0,
				"roughnessFactor":0.5
			}
		},
		{
			"doubleSided":true,
			"name":"Material.006",
			"pbrMetallicRoughness":{
				"baseColorFactor":[
					0.023798536509275436,
					0.023798536509275436,
					0.01731395721435547,
					1
				],
				"metallicFactor":0,
				"roughnessFactor":0.5
			}
		},
		{
			"doubleSided":true,
			"name":"Material.009",
			"pbrMetallicRoughness":{
				"baseColorFactor":[
					0.013910109177231789,
					0.013910109177231789,
					0.01181945949792862,
					1
				],
				"metallicFactor":0,
				"roughnessFactor":0.5
			}
		},
		{
			"doubleSided":true,
			"name":"Material.004",
			"pbrMetallicRoughness":{
				"baseColorFactor":[
					0.532464861869812,
					0.2957872152328491,
					0.28712940216064453,
					1
				],
				"metallicFactor":0,
				"roughnessFactor":0.5
			}
		}
	],
	"meshes":[
		{
			"name":"Cube.015",
			"primitives":[
				{
					"attributes":{
						"POSITION":0,
						"NORMAL":1
					},
					"indices":2,
					"material":0
				},
				{
					"attributes":{
						"POSITION":3,
						"NORMAL":4
					},
					"indices":5,
					"material":1
				},
				{
					"attributes":{
						"POSITION":6,
						"NORMAL":7
					},
					"indices":8,
					"material":2
				}
			]
		},
		{
			"name":"Cube.020",
			"primitives":[
				{
					"attributes":{
						"POSITION":9,
						"NORMAL":10
					},
					"indices":11,
					"material":3
				}
			]
		},
		{
			"name":"Cube.021",
			"primitives":[
				{
					"attributes":{
						"POSITION":12,
						"NORMAL":13
					},
					"indices":14,
					"material":4
				},
				{
					"attributes":{
						"POSITION":15,
						"NORMAL":16
					},
					"indices":17,
					"material":5
				}
			]
		},
		{
			"name":"Cube.022",
			"primitives":[
				{
					"attributes":{
						"POSITION":18,
						"NORMAL":19
					},
					"indices":11,
					"material":6
				}
			]
		},
		{
			"name":"Cube.023",
			"primitives":[
				{
					"attributes":{
						"POSITION":20,
						"NORMAL":21
					},
					"indices":11,
					"material":7
				}
			]
		},
		{
			"name":"Cube.024",
			"primitives":[
				{
					"attributes":{
						"POSITION":22,
						"NORMAL":23
					},
					"indices":11,
					"material":8
				}
			]
		},
		{
			"name":"Cube.025",
			"primitives":[
				{
					"attributes":{
						"POSITION":24,
						"NORMAL":25
					},
					"indices":11,
					"material":9
				}
			]
		},
		{
			"name":"Cube.026",
			"primitives":[
				{
					"attributes":{
						"POSITION":26,
						"NORMAL":27
					},
					"indices":11,
					"material":10
				}
			]
		},
		{
			"name":"Cube.027",
			"primitives":[
				{
					"attributes":{
						"POSITION":28,
						"NORMAL":29
					},
					"indices":11,
					"material":11
				}
			]
		}
	],
	"accessors":[
		{
			"bufferView":0,
			"componentType":5126,
			"count":14601,
			"max":[
				1.832606315612793,
				1.7328720092773438,
				1.7859774827957153
			],
			"min":[
				-1.9840587377548218,
				-1.813293218612671,
				-1.933306336402893
			],
			"type":"VEC3"
		},
		{
			"bufferView":1,
			"componentType":5126,
			"count":14601,
			"type":"VEC3"
		},
		{
			"bufferView":2,
			"componentType":5123,
			"count":86670,
			"type":"SCALAR"
		},
		{
			"bufferView":3,
			"componentType":5126,
			"count":1314,
			"max":[
				0.68521648645401,
				1.698264241218567,
				1.665610432624817
			],
			"min":[
				-1.5617437362670898,
				0.20788916945457458,
				-0.20933762192726135
			],
			"type":"VEC3"
		},
		{
			"bufferView":4,
			"componentType":5126,
			"count":1314,
			"type":"VEC3"
		},
		{
			"bufferView":5,
			"componentType":5123,
			"count":7170,
			"type":"SCALAR"
		},
		{
			"bufferView":6,
			"componentType":5126,
			"count":179,
			"max":[
				0.9261881709098816,
				1.3096176385879517,
				-0.7293063998222351
			],
			"min":[
				-1.6536678075790405,
				0.36449724435806274,
				-1.5326130390167236
			],
			"type":"VEC3"
		},
		{
			"bufferView":7,
			"componentType":5126,
			"count":179,
			"type":"VEC3"
		},
		{
			"bufferView":8,
			"componentType":5123,
			"count":852,
			"type":"SCALAR"
		},
		{
			"bufferView":9,
			"componentType":5126,
			"count":1538,
			"max":[
				2.17987060546875,
				1.681519627571106,
				1.4178694486618042
			],
			"min":[
				-1.7373651266098022,
				-1.6755541563034058,
				-1.6930865049362183
			],
			"type":"VEC3"
		},
		{
			"bufferView":10,
			"componentType":5126,
			"count":1538,
			"type":"VEC3"
		},
		{
			"bufferView":11,
			"componentType":5123,
			"count":9216,
			"type":"SCALAR"
		},
		{
			"bufferView":12,
			"componentType":5126,
			"count":1538,
			"max":[
				1.5220494270324707,
				1.5316845178604126,
				1.7320636510849
			],
			"min":[
				-1.7318415641784668,
				-1.6450351476669312,
				-1.5951123237609863
			],
			"type":"VEC3"
		},
		{
			"bufferView":13,
			"componentType":5126,
			"count":1538,
			"type":"VEC3"
		},
		{
			"bufferView":14,
			"componentType":5123,
			"count":8064,
			"type":"SCALAR"
		},
		{
			"bufferView":15,
			"componentType":5126,
			"count":384,
			"max":[
				0.9415923953056335,
				1.5237205028533936,
				1.7320636510849
			],
			"min":[
				-0.18041130900382996,
				-1.6450351476669312,
				-1.5938396453857422
			],
			"type":"VEC3"
		},
		{
			"bufferView":16,
			"componentType":5126,
			"count":384,
			"type":"VEC3"
		},
		{
			"bufferView":17,
			"componentType":5123,
			"count":1152,
			"type":"SCALAR"
		},
		{
			"bufferView":18,
			"componentType":5126,
			"count":1538,
			"max":[
				1.7108181715011597,
				1.7007063627243042,
				1.5259207487106323
			],
			"min":[
				-1.714874029159546,
				-1.7340784072875977,
				-1.7370672225952148
			],
			"type":"VEC3"
		},
		{
			"bufferView":19,
			"componentType":5126,
			"count":1538,
			"type":"VEC3"
		},
		{
			"bufferView":20,
			"componentType":5126,
			"count":1538,
			"max":[
				1.7320096492767334,
				1.7320085763931274,
				1.7320098876953125
			],
			"min":[
				-1.7320098876953125,
				-1.7320109605789185,
				-1.7320094108581543
			],
			"type":"VEC3"
		},
		{
			"bufferView":21,
			"componentType":5126,
			"count":1538,
			"type":"VEC3"
		},
		{
			"bufferView":22,
			"componentType":5126,
			"count":1538,
			"max":[
				1.7320096492767334,
				1.7320085763931274,
				1.7320098876953125
			],
			"min":[
				-1.7320098876953125,
				-1.7320109605789185,
				-1.7320094108581543
			],
			"type":"VEC3"
		},
		{
			"bufferView":23,
			"componentType":5126,
			"count":1538,
			"type":"VEC3"
		},
		{
			"bufferView":24,
			"componentType":5126,
			"count":1538,
			"max":[
				1.7320096492767334,
				1.7320085763931274,
				1.7320098876953125
			],
			"min":[
				-1.7320098876953125,
				-1.7320109605789185,
				-1.7320094108581543
			],
			"type":"VEC3"
		},
		{
			"bufferView":25,
			"componentType":5126,
			"count":1538,
			"type":"VEC3"
		},
		{
			"bufferView":26,
			"componentType":5126,
			"count":1538,
			"max":[
				1.7320096492767334,
				1.7320085763931274,
				1.7320098876953125
			],
			"min":[
				-1.7320098876953125,
				-1.7320109605789185,
				-1.7320094108581543
			],
			"type":"VEC3"
		},
		{
			"bufferView":27,
			"componentType":5126,
			"count":1538,
			"type":"VEC3"
		},
		{
			"bufferView":28,
			"componentType":5126,
			"count":1538,
			"max":[
				1.9324743747711182,
				1.7516639232635498,
				1.7233928442001343
			],
			"min":[
				-2.04423451423645,
				-1.4598726034164429,
				-1.8250962495803833
			],
			"type":"VEC3"
		},
		{
			"bufferView":29,
			"componentType":5126,
			"count":1538,
			"type":"VEC3"
		}
	],
	"bufferViews":[
		{
			"buffer":0,
			"byteLength":175212,
			"byteOffset":0,
			"target":34962
		},
		{
			"buffer":0,
			"byteLength":175212,
			"byteOffset":175212,
			"target":34962
		},
		{
			"buffer":0,
			"byteLength":173340,
			"byteOffset":350424,
			"target":34963
		},
		{
			"buffer":0,
			"byteLength":15768,
			"byteOffset":523764,
			"target":34962
		},
		{
			"buffer":0,
			"byteLength":15768,
			"byteOffset":539532,
			"target":34962
		},
		{
			"buffer":0,
			"byteLength":14340,
			"byteOffset":555300,
			"target":34963
		},
		{
			"buffer":0,
			"byteLength":2148,
			"byteOffset":569640,
			"target":34962
		},
		{
			"buffer":0,
			"byteLength":2148,
			"byteOffset":571788,
			"target":34962
		},
		{
			"buffer":0,
			"byteLength":1704,
			"byteOffset":573936,
			"target":34963
		},
		{
			"buffer":0,
			"byteLength":18456,
			"byteOffset":575640,
			"target":34962
		},
		{
			"buffer":0,
			"byteLength":18456,
			"byteOffset":594096,
			"target":34962
		},
		{
			"buffer":0,
			"byteLength":18432,
			"byteOffset":612552,
			"target":34963
		},
		{
			"buffer":0,
			"byteLength":18456,
			"byteOffset":630984,
			"target":34962
		},
		{
			"buffer":0,
			"byteLength":18456,
			"byteOffset":649440,
			"target":34962
		},
		{
			"buffer":0,
			"byteLength":16128,
			"byteOffset":667896,
			"target":34963
		},
		{
			"buffer":0,
			"byteLength":4608,
			"byteOffset":684024,
			"target":34962
		},
		{
			"buffer":0,
			"byteLength":4608,
			"byteOffset":688632,
			"target":34962
		},
		{
			"buffer":0,
			"byteLength":2304,
			"byteOffset":693240,
			"target":34963
		},
		{
			"buffer":0,
			"byteLength":18456,
			"byteOffset":695544,
			"target":34962
		},
		{
			"buffer":0,
			"byteLength":18456,
			"byteOffset":714000,
			"target":34962
		},
		{
			"buffer":0,
			"byteLength":18456,
			"byteOffset":732456,
			"target":34962
		},
		{
			"buffer":0,
			"byteLength":18456,
			"byteOffset":750912,
			"target":34962
		},
		{
			"buffer":0,
			"byteLength":18456,
			"byteOffset":769368,
			"target":34962
		},
		{
			"buffer":0,
			"byteLength":18456,
			"byteOffset":787824,
			"target":34962
		},
		{
			"buffer":0,
			"byteLength":18456,
			"byteOffset":806280,
			"target":34962
		},
		{
			"buffer":0,
			"byteLength":18456,
			"byteOffset":824736,
			"target":34962
		},
		{
			"buffer":0,
			"byteLength":18456,
			"byteOffset":843192,
			"target":34962
		},
		{
			"buffer":0,
			"byteLength":18456,
			"byteOffset":861648,
			"target":34962
		},
		{
			"buffer":0,
			"byteLength":18456,
			"byteOffset":880104,
			"target":34962
		},
		{
			"buffer":0,
			"byteLength":18456,
			"byteOffset":898560,
			"target":34962
		}
	],
	"buffers":[
		{
			"byteLength":917016,
			"uri":"loui.bin"
		}
	]
}
